<?xml version="1.0" encoding="UTF-8" standalone="no"?>
<!-- Created with Inkscape (http://www.inkscape.org/) -->
<svg xmlns:dc="http://purl.org/dc/elements/1.1/" xmlns:cc="http://creativecommons.org/ns#" xmlns:rdf="http://www.w3.org/1999/02/22-rdf-syntax-ns#" xmlns:svg="http://www.w3.org/2000/svg" xmlns="http://www.w3.org/2000/svg" xmlns:sodipodi="http://sodipodi.sourceforge.net/DTD/sodipodi-0.dtd" xmlns:inkscape="http://www.inkscape.org/namespaces/inkscape" id="svg2" version="1.1" inkscape:version="0.48.2 r9819" width="560" height="500" sodipodi:docname="Epicycle and deferent.svg">
  <metadata id="metadata8">
    <rdf:RDF>
      <cc:Work rdf:about="">
        <dc:format>image/svg+xml</dc:format>
        <dc:type rdf:resource="http://purl.org/dc/dcmitype/StillImage"/>
        <dc:title/>
      </cc:Work>
    </rdf:RDF>
  </metadata>
  <defs id="defs6"/>
  <sodipodi:namedview pagecolor="#ffffff" bordercolor="#666666" borderopacity="1" objecttolerance="10" gridtolerance="10" guidetolerance="10" inkscape:pageopacity="0" inkscape:pageshadow="2" inkscape:window-width="1366" inkscape:window-height="706" id="namedview4" showgrid="false" inkscape:zoom="0.6675088" inkscape:cx="135.46872" inkscape:cy="304.23922" inkscape:window-x="-8" inkscape:window-y="-8" inkscape:window-maximized="1" inkscape:current-layer="svg2"/>
  <path sodipodi:type="arc" style="fill:none;stroke:#000000;stroke-width:4.5;stroke-linecap:butt;stroke-linejoin:miter;stroke-miterlimit:4;stroke-opacity:1;stroke-dasharray:none;stroke-dashoffset:0" id="path2987" sodipodi:cx="286.81143" sodipodi:cy="281.51483" sodipodi:rx="10.933334" sodipodi:ry="10.933334" d="m 297.74477,281.51483 a 10.933334,10.933334 0 1 1 -21.86667,0 10.933334,10.933334 0 1 1 21.86667,0 z" transform="matrix(-1,0,0,1,564.77102,8.9886455)"/>
  <path d="m 476.76862,281.51483 a 189.95718,189.95718 0 1 1 -379.914372,0 189.95718,189.95718 0 1 1 379.914372,0 z" sodipodi:ry="189.95718" sodipodi:rx="189.95718" sodipodi:cy="281.51483" sodipodi:cx="286.81143" id="path3757" style="fill:none;stroke:#000000;stroke-width:1.5;stroke-linecap:butt;stroke-linejoin:miter;stroke-miterlimit:4;stroke-opacity:1;stroke-dasharray:none;stroke-dashoffset:0" sodipodi:type="arc" transform="matrix(-1,0,0,1,564.77102,8.9886455)"/>
  <path sodipodi:type="arc" style="fill:none;stroke:#000000;stroke-width:1.5;stroke-linecap:butt;stroke-linejoin:miter;stroke-miterlimit:4;stroke-opacity:1;stroke-dasharray:none;stroke-dashoffset:0" id="path3759" sodipodi:cx="286.81143" sodipodi:cy="281.51483" sodipodi:rx="67.861412" sodipodi:ry="67.861412" d="m 354.67284,281.51483 a 67.861412,67.861412 0 1 1 -135.72282,0 67.861412,67.861412 0 1 1 135.72282,0 z" transform="matrix(-1,0,0,1,727.40932,-91.103674)"/>
  <path style="fill:none;stroke:#000000;stroke-width:4;stroke-linecap:butt;stroke-linejoin:miter;stroke-miterlimit:4;stroke-opacity:1;stroke-dasharray:none" d="m 519.82779,403.37207 c 22.01627,-92.15215 -28.96403,-135.06697 -75.65443,-138.57496 -16.60257,-1.2474 -36.55444,6.13501 -35.80346,28.27695 0.30435,8.97361 9.80323,25.87174 36.55251,23.40776 87.64862,-8.07364 86.09547,-93.72707 54.10583,-159.72241 -41.23828,-85.075514 -167.4711,-86.902586 -194.17889,-20.79955 -5.82228,14.41041 -4.69356,27.9512 6.74149,35.95458 3.36453,2.35483 7.35055,3.97627 12.41818,4.4383 12.24415,1.11632 27.71865,-1.97563 32.83725,-28.34598 C 373.61823,61.599779 270.89666,29.606884 190.01628,59.212113 96.32839,93.505371 76.48025,179.11754 132.6906,222.97313 c 12.45499,9.71745 34.94228,11.8021 44.49156,-3.10634 11.93136,-18.62738 -7.06485,-35.44489 -16.01284,-41.38662 -28.22854,-18.74459 -105.25522,-13.82544 -139.8305,59.8517" id="path3769" inkscape:connector-curvature="0" sodipodi:nodetypes="cssssssssssssc"/>
  <path transform="matrix(-1,0,0,1,727.40932,-91.103674)" d="m 291.11352,281.51483 a 4.3020902,4.3020902 0 1 1 -8.60418,0 4.3020902,4.3020902 0 1 1 8.60418,0 z" sodipodi:ry="4.3020902" sodipodi:rx="4.3020902" sodipodi:cy="281.51483" sodipodi:cx="286.81143" id="path3773" style="fill:#000000;fill-opacity:1;stroke:#000000;stroke-width:2.5;stroke-linecap:butt;stroke-linejoin:miter;stroke-miterlimit:4;stroke-opacity:1;stroke-dasharray:none;stroke-dashoffset:0" sodipodi:type="arc"/>
  <path d="m 297.74477,281.51483 a 10.933334,10.933334 0 1 1 -21.86667,0 10.933334,10.933334 0 1 1 21.86667,0 z" sodipodi:ry="10.933334" sodipodi:rx="10.933334" sodipodi:cy="281.51483" sodipodi:cx="286.81143" id="path3761" style="fill:#d40000;fill-opacity:1;stroke:#d40000;stroke-width:4.5;stroke-linecap:butt;stroke-linejoin:miter;stroke-miterlimit:4;stroke-opacity:1;stroke-dasharray:none;stroke-dashoffset:0" sodipodi:type="arc" transform="matrix(-1,0,0,1,784.9474,-124.29749)"/>
  <path style="fill:#000000;fill-opacity:1;stroke:#000000;stroke-width:1px;stroke-linecap:butt;stroke-linejoin:miter;stroke-opacity:1" d="m 287.04799,93.469577 -22.43222,6.981593 22.43222,6.88479 z" id="path3775" inkscape:connector-curvature="0" sodipodi:nodetypes="cccc"/>
  <path sodipodi:nodetypes="cccc" inkscape:connector-curvature="0" id="path3777" d="m 370.78812,218.14914 17.31837,15.87519 -5.33387,-22.85071 z" style="fill:#000000;fill-opacity:1;stroke:#000000;stroke-width:1px;stroke-linecap:butt;stroke-linejoin:miter;stroke-opacity:1"/>
  <path sodipodi:nodetypes="cccc" inkscape:connector-curvature="0" id="path3779" d="m 16.01685,231.87928 -1.11017,23.4673 14.14061,-18.72559 z" style="fill:#000000;fill-opacity:1;stroke:#000000;stroke-width:1px;stroke-linecap:butt;stroke-linejoin:miter;stroke-opacity:1"/>
  <path transform="matrix(-1,0,0,1,591.09147,-139.128)" sodipodi:type="arc" style="fill:none;stroke:#d40000;stroke-width:4.5;stroke-linecap:butt;stroke-linejoin:miter;stroke-miterlimit:4;stroke-opacity:1;stroke-dasharray:none;stroke-dashoffset:0" id="path3797" sodipodi:cx="286.81143" sodipodi:cy="281.51483" sodipodi:rx="10.933334" sodipodi:ry="10.933334" d="m 297.74477,281.51483 a 10.933334,10.933334 0 1 1 -21.86667,0 10.933334,10.933334 0 1 1 21.86667,0 z"/>
  <path d="m 297.74477,281.51483 a 10.933334,10.933334 0 1 1 -21.86667,0 10.933334,10.933334 0 1 1 21.86667,0 z" sodipodi:ry="10.933334" sodipodi:rx="10.933334" sodipodi:cy="281.51483" sodipodi:cx="286.81143" id="path3799" style="fill:none;stroke:#d40000;stroke-width:4.5;stroke-linecap:butt;stroke-linejoin:miter;stroke-miterlimit:4;stroke-opacity:1;stroke-dasharray:none;stroke-dashoffset:0" sodipodi:type="arc" transform="matrix(-1,0,0,1,636.64232,-116.88224)"/>
  <path transform="matrix(-1,0,0,1,465.03215,-216.45851)" sodipodi:type="arc" style="fill:none;stroke:#d40000;stroke-width:4.5;stroke-linecap:butt;stroke-linejoin:miter;stroke-miterlimit:4;stroke-opacity:1;stroke-dasharray:none;stroke-dashoffset:0" id="path3801" sodipodi:cx="286.81143" sodipodi:cy="281.51483" sodipodi:rx="10.933334" sodipodi:ry="10.933334" d="m 297.74477,281.51483 a 10.933334,10.933334 0 1 1 -21.86667,0 10.933334,10.933334 0 1 1 21.86667,0 z"/>
  <text xml:space="preserve" style="font-size:36px;font-style:normal;font-variant:normal;font-weight:normal;font-stretch:normal;line-height:125%;letter-spacing:0px;word-spacing:0px;fill:#000000;fill-opacity:1;stroke:none;font-family:Arial;-inkscape-font-specification:Arial" x="512.86688" y="149.03522" id="text3043" sodipodi:linespacing="125%"><tspan sodipodi:role="line" id="tspan3045" x="512.86688" y="149.03522">1</tspan></text>
  <text xml:space="preserve" style="font-size:36px;font-style:normal;font-variant:normal;font-weight:normal;font-stretch:normal;line-height:125%;letter-spacing:0px;word-spacing:0px;fill:#000000;fill-opacity:1;stroke:none;font-family:Arial;-inkscape-font-specification:Arial" x="270.33694" y="172.47261" id="text3047" sodipodi:linespacing="125%"><tspan sodipodi:role="line" id="tspan3049" x="270.33694" y="172.47261">2</tspan></text>
  <text xml:space="preserve" style="font-size:36px;font-style:normal;font-variant:normal;font-weight:normal;font-stretch:normal;line-height:125%;letter-spacing:0px;word-spacing:0px;fill:#000000;fill-opacity:1;stroke:none;font-family:Arial;-inkscape-font-specification:Arial" x="336.2149" y="208.73367" id="text3051" sodipodi:linespacing="125%"><tspan sodipodi:role="line" id="tspan3053" x="336.2149" y="208.73367">3</tspan></text>
  <text xml:space="preserve" style="font-size:36px;font-style:normal;font-variant:normal;font-weight:normal;font-stretch:normal;line-height:125%;letter-spacing:0px;word-spacing:0px;fill:#000000;fill-opacity:1;stroke:none;font-family:Arial;-inkscape-font-specification:Arial" x="146.26929" y="55.093231" id="text3055" sodipodi:linespacing="125%"><tspan sodipodi:role="line" id="tspan3057" x="146.26929" y="55.093231">4</tspan></text>
</svg>